<mxfile host="app.diagrams.net" modified="2023-10-11T10:34:18.876Z" agent="Mozilla/5.0 (X11; Ubuntu; Linux x86_64; rv:109.0) Gecko/20100101 Firefox/118.0" etag="Gn_8eHmAGwu2dyYuVFot" version="22.0.4" type="github">
  <diagram name="Страница — 1" id="ayIiPRhWR7hCKisW7bex">
    <mxGraphModel dx="884" dy="1784" grid="1" gridSize="10" guides="1" tooltips="1" connect="1" arrows="1" fold="1" page="1" pageScale="1" pageWidth="827" pageHeight="1169" math="0" shadow="0">
      <root>
        <mxCell id="0" />
        <mxCell id="1" parent="0" />
        <mxCell id="Rtu0G7_exBjI5bwSWY3L-1" value="Actor" style="shape=umlActor;verticalLabelPosition=bottom;verticalAlign=top;html=1;outlineConnect=0;" vertex="1" parent="1">
          <mxGeometry x="80" y="50" width="30" height="60" as="geometry" />
        </mxCell>
        <mxCell id="Rtu0G7_exBjI5bwSWY3L-3" value="выбор языка приложения" style="rounded=1;whiteSpace=wrap;html=1;" vertex="1" parent="1">
          <mxGeometry x="250" width="120" height="60" as="geometry" />
        </mxCell>
        <mxCell id="Rtu0G7_exBjI5bwSWY3L-4" value="авторизация" style="rounded=1;whiteSpace=wrap;html=1;" vertex="1" parent="1">
          <mxGeometry x="250" y="80" width="120" height="60" as="geometry" />
        </mxCell>
        <mxCell id="Rtu0G7_exBjI5bwSWY3L-5" value="меню поиска" style="rounded=1;whiteSpace=wrap;html=1;" vertex="1" parent="1">
          <mxGeometry x="380" y="270" width="120" height="60" as="geometry" />
        </mxCell>
        <mxCell id="Rtu0G7_exBjI5bwSWY3L-7" value="" style="endArrow=classic;html=1;rounded=0;entryX=0;entryY=0.5;entryDx=0;entryDy=0;exitX=0.5;exitY=0.5;exitDx=0;exitDy=0;exitPerimeter=0;" edge="1" parent="1" source="Rtu0G7_exBjI5bwSWY3L-1" target="Rtu0G7_exBjI5bwSWY3L-3">
          <mxGeometry width="50" height="50" relative="1" as="geometry">
            <mxPoint x="150" y="80" as="sourcePoint" />
            <mxPoint x="60" y="90" as="targetPoint" />
            <Array as="points">
              <mxPoint x="150" y="80" />
              <mxPoint x="150" y="30" />
            </Array>
          </mxGeometry>
        </mxCell>
        <mxCell id="Rtu0G7_exBjI5bwSWY3L-8" value="" style="endArrow=classic;html=1;rounded=0;exitX=0.5;exitY=0.5;exitDx=0;exitDy=0;exitPerimeter=0;entryX=0;entryY=0.5;entryDx=0;entryDy=0;" edge="1" parent="1" source="Rtu0G7_exBjI5bwSWY3L-1" target="Rtu0G7_exBjI5bwSWY3L-4">
          <mxGeometry width="50" height="50" relative="1" as="geometry">
            <mxPoint x="390" y="230" as="sourcePoint" />
            <mxPoint x="440" y="180" as="targetPoint" />
            <Array as="points">
              <mxPoint x="150" y="80" />
              <mxPoint x="150" y="110" />
            </Array>
          </mxGeometry>
        </mxCell>
        <mxCell id="Rtu0G7_exBjI5bwSWY3L-9" value="" style="endArrow=classic;html=1;rounded=0;exitX=0.5;exitY=0.5;exitDx=0;exitDy=0;exitPerimeter=0;entryX=0;entryY=0.5;entryDx=0;entryDy=0;" edge="1" parent="1" source="Rtu0G7_exBjI5bwSWY3L-1" target="Rtu0G7_exBjI5bwSWY3L-5">
          <mxGeometry width="50" height="50" relative="1" as="geometry">
            <mxPoint x="390" y="230" as="sourcePoint" />
            <mxPoint x="440" y="180" as="targetPoint" />
            <Array as="points">
              <mxPoint x="150" y="80" />
              <mxPoint x="150" y="190" />
              <mxPoint x="150" y="300" />
            </Array>
          </mxGeometry>
        </mxCell>
        <mxCell id="Rtu0G7_exBjI5bwSWY3L-10" value="авторизация через соцсети" style="rounded=1;whiteSpace=wrap;html=1;" vertex="1" parent="1">
          <mxGeometry x="440" y="-90" width="120" height="60" as="geometry" />
        </mxCell>
        <mxCell id="Rtu0G7_exBjI5bwSWY3L-11" value="" style="endArrow=classic;html=1;rounded=0;exitX=1;exitY=0.5;exitDx=0;exitDy=0;entryX=0;entryY=0.5;entryDx=0;entryDy=0;" edge="1" parent="1" source="Rtu0G7_exBjI5bwSWY3L-4" target="Rtu0G7_exBjI5bwSWY3L-10">
          <mxGeometry width="50" height="50" relative="1" as="geometry">
            <mxPoint x="390" y="230" as="sourcePoint" />
            <mxPoint x="440" y="180" as="targetPoint" />
            <Array as="points">
              <mxPoint x="400" y="110" />
              <mxPoint x="400" y="-60" />
            </Array>
          </mxGeometry>
        </mxCell>
        <mxCell id="Rtu0G7_exBjI5bwSWY3L-12" value="авторизация через google аккаунт" style="rounded=1;whiteSpace=wrap;html=1;" vertex="1" parent="1">
          <mxGeometry x="440" width="120" height="60" as="geometry" />
        </mxCell>
        <mxCell id="Rtu0G7_exBjI5bwSWY3L-13" value="" style="endArrow=classic;html=1;rounded=0;entryX=0;entryY=0.5;entryDx=0;entryDy=0;exitX=1;exitY=0.5;exitDx=0;exitDy=0;" edge="1" parent="1" source="Rtu0G7_exBjI5bwSWY3L-4" target="Rtu0G7_exBjI5bwSWY3L-12">
          <mxGeometry width="50" height="50" relative="1" as="geometry">
            <mxPoint x="340" y="390" as="sourcePoint" />
            <mxPoint x="390" y="340" as="targetPoint" />
            <Array as="points">
              <mxPoint x="400" y="110" />
              <mxPoint x="400" y="30" />
            </Array>
          </mxGeometry>
        </mxCell>
        <mxCell id="Rtu0G7_exBjI5bwSWY3L-14" value="авторизация через email" style="rounded=1;whiteSpace=wrap;html=1;" vertex="1" parent="1">
          <mxGeometry x="440" y="90" width="120" height="60" as="geometry" />
        </mxCell>
        <mxCell id="Rtu0G7_exBjI5bwSWY3L-15" value="" style="endArrow=classic;html=1;rounded=0;entryX=0;entryY=0.5;entryDx=0;entryDy=0;" edge="1" parent="1" target="Rtu0G7_exBjI5bwSWY3L-14">
          <mxGeometry width="50" height="50" relative="1" as="geometry">
            <mxPoint x="370" y="110" as="sourcePoint" />
            <mxPoint x="180" y="320" as="targetPoint" />
            <Array as="points">
              <mxPoint x="400" y="110" />
              <mxPoint x="400" y="120" />
            </Array>
          </mxGeometry>
        </mxCell>
        <mxCell id="Rtu0G7_exBjI5bwSWY3L-16" value="" style="endArrow=classic;html=1;rounded=0;exitX=1;exitY=0.5;exitDx=0;exitDy=0;" edge="1" parent="1" source="Rtu0G7_exBjI5bwSWY3L-12" target="Rtu0G7_exBjI5bwSWY3L-17">
          <mxGeometry width="50" height="50" relative="1" as="geometry">
            <mxPoint x="590" y="80" as="sourcePoint" />
            <mxPoint x="640" y="30" as="targetPoint" />
          </mxGeometry>
        </mxCell>
        <mxCell id="Rtu0G7_exBjI5bwSWY3L-17" value="личный кабинет" style="rounded=1;whiteSpace=wrap;html=1;" vertex="1" parent="1">
          <mxGeometry x="640" width="120" height="60" as="geometry" />
        </mxCell>
        <mxCell id="Rtu0G7_exBjI5bwSWY3L-19" value="" style="endArrow=classic;html=1;rounded=0;exitX=1;exitY=0.5;exitDx=0;exitDy=0;entryX=0;entryY=0.5;entryDx=0;entryDy=0;" edge="1" parent="1" source="Rtu0G7_exBjI5bwSWY3L-10" target="Rtu0G7_exBjI5bwSWY3L-17">
          <mxGeometry width="50" height="50" relative="1" as="geometry">
            <mxPoint x="660" y="-90" as="sourcePoint" />
            <mxPoint x="710" y="-140" as="targetPoint" />
            <Array as="points">
              <mxPoint x="600" y="-60" />
              <mxPoint x="600" y="30" />
            </Array>
          </mxGeometry>
        </mxCell>
        <mxCell id="Rtu0G7_exBjI5bwSWY3L-20" value="" style="endArrow=classic;html=1;rounded=0;exitX=1;exitY=0.5;exitDx=0;exitDy=0;entryX=0;entryY=0.5;entryDx=0;entryDy=0;" edge="1" parent="1" source="Rtu0G7_exBjI5bwSWY3L-14" target="Rtu0G7_exBjI5bwSWY3L-17">
          <mxGeometry width="50" height="50" relative="1" as="geometry">
            <mxPoint x="610" y="210" as="sourcePoint" />
            <mxPoint x="730" y="100" as="targetPoint" />
            <Array as="points">
              <mxPoint x="600" y="120" />
              <mxPoint x="600" y="30" />
            </Array>
          </mxGeometry>
        </mxCell>
        <mxCell id="Rtu0G7_exBjI5bwSWY3L-22" value="" style="endArrow=classic;html=1;rounded=0;exitX=1;exitY=0.5;exitDx=0;exitDy=0;entryX=1;entryY=0.5;entryDx=0;entryDy=0;" edge="1" parent="1" source="Rtu0G7_exBjI5bwSWY3L-17" target="Rtu0G7_exBjI5bwSWY3L-5">
          <mxGeometry width="50" height="50" relative="1" as="geometry">
            <mxPoint x="820" y="20" as="sourcePoint" />
            <mxPoint x="540" y="260" as="targetPoint" />
            <Array as="points">
              <mxPoint x="800" y="30" />
              <mxPoint x="800" y="200" />
              <mxPoint x="600" y="200" />
              <mxPoint x="600" y="300" />
            </Array>
          </mxGeometry>
        </mxCell>
        <mxCell id="Rtu0G7_exBjI5bwSWY3L-23" value="" style="endArrow=classic;html=1;rounded=0;exitX=1;exitY=0.5;exitDx=0;exitDy=0;entryX=1;entryY=0.5;entryDx=0;entryDy=0;" edge="1" parent="1" source="Rtu0G7_exBjI5bwSWY3L-10" target="Rtu0G7_exBjI5bwSWY3L-5">
          <mxGeometry width="50" height="50" relative="1" as="geometry">
            <mxPoint x="40" y="260" as="sourcePoint" />
            <mxPoint x="540" y="300" as="targetPoint" />
            <Array as="points">
              <mxPoint x="600" y="-60" />
              <mxPoint x="600" y="300" />
            </Array>
          </mxGeometry>
        </mxCell>
        <mxCell id="Rtu0G7_exBjI5bwSWY3L-24" value="" style="endArrow=classic;html=1;rounded=0;exitX=1;exitY=0.5;exitDx=0;exitDy=0;" edge="1" parent="1" source="Rtu0G7_exBjI5bwSWY3L-3">
          <mxGeometry width="50" height="50" relative="1" as="geometry">
            <mxPoint x="20" y="280" as="sourcePoint" />
            <mxPoint x="440" y="30" as="targetPoint" />
          </mxGeometry>
        </mxCell>
        <mxCell id="Rtu0G7_exBjI5bwSWY3L-25" value="база данных" style="rounded=1;whiteSpace=wrap;html=1;" vertex="1" parent="1">
          <mxGeometry x="710" y="270" width="120" height="60" as="geometry" />
        </mxCell>
        <mxCell id="Rtu0G7_exBjI5bwSWY3L-26" value="" style="endArrow=classic;startArrow=classic;html=1;rounded=0;entryX=0;entryY=0.5;entryDx=0;entryDy=0;exitX=1;exitY=0.5;exitDx=0;exitDy=0;" edge="1" parent="1" source="Rtu0G7_exBjI5bwSWY3L-5" target="Rtu0G7_exBjI5bwSWY3L-25">
          <mxGeometry width="50" height="50" relative="1" as="geometry">
            <mxPoint x="200" y="450" as="sourcePoint" />
            <mxPoint x="250" y="400" as="targetPoint" />
          </mxGeometry>
        </mxCell>
        <mxCell id="Rtu0G7_exBjI5bwSWY3L-33" value="&lt;div&gt;получить результаты поиска&lt;/div&gt;" style="rounded=1;whiteSpace=wrap;html=1;" vertex="1" parent="1">
          <mxGeometry x="380" y="400" width="120" height="60" as="geometry" />
        </mxCell>
        <mxCell id="Rtu0G7_exBjI5bwSWY3L-34" value="" style="endArrow=classic;html=1;rounded=0;exitX=0.5;exitY=1;exitDx=0;exitDy=0;entryX=0.5;entryY=0;entryDx=0;entryDy=0;" edge="1" parent="1" source="Rtu0G7_exBjI5bwSWY3L-5" target="Rtu0G7_exBjI5bwSWY3L-33">
          <mxGeometry width="50" height="50" relative="1" as="geometry">
            <mxPoint x="150" y="460" as="sourcePoint" />
            <mxPoint x="200" y="410" as="targetPoint" />
          </mxGeometry>
        </mxCell>
        <mxCell id="Rtu0G7_exBjI5bwSWY3L-36" value="" style="endArrow=classic;html=1;rounded=0;exitX=0.5;exitY=1;exitDx=0;exitDy=0;entryX=0.5;entryY=0;entryDx=0;entryDy=0;" edge="1" parent="1" source="Rtu0G7_exBjI5bwSWY3L-33" target="Rtu0G7_exBjI5bwSWY3L-37">
          <mxGeometry width="50" height="50" relative="1" as="geometry">
            <mxPoint x="140" y="450" as="sourcePoint" />
            <mxPoint x="214" y="557" as="targetPoint" />
            <Array as="points">
              <mxPoint x="440" y="510" />
              <mxPoint x="200" y="510" />
            </Array>
          </mxGeometry>
        </mxCell>
        <mxCell id="Rtu0G7_exBjI5bwSWY3L-37" value="получить результаты на email" style="rounded=1;whiteSpace=wrap;html=1;" vertex="1" parent="1">
          <mxGeometry x="140" y="555" width="120" height="60" as="geometry" />
        </mxCell>
        <mxCell id="Rtu0G7_exBjI5bwSWY3L-38" value="запись результатов поиска в файловое хранилище" style="rounded=1;whiteSpace=wrap;html=1;" vertex="1" parent="1">
          <mxGeometry x="380" y="555" width="120" height="60" as="geometry" />
        </mxCell>
        <mxCell id="Rtu0G7_exBjI5bwSWY3L-39" value="" style="endArrow=classic;html=1;rounded=0;exitX=0.5;exitY=1;exitDx=0;exitDy=0;entryX=0.5;entryY=0;entryDx=0;entryDy=0;" edge="1" parent="1" source="Rtu0G7_exBjI5bwSWY3L-33" target="Rtu0G7_exBjI5bwSWY3L-38">
          <mxGeometry width="50" height="50" relative="1" as="geometry">
            <mxPoint x="90" y="450" as="sourcePoint" />
            <mxPoint x="140" y="400" as="targetPoint" />
          </mxGeometry>
        </mxCell>
        <mxCell id="Rtu0G7_exBjI5bwSWY3L-40" value="переход на сайт авиакомпании для покупки билета" style="rounded=1;whiteSpace=wrap;html=1;" vertex="1" parent="1">
          <mxGeometry x="620" y="555" width="120" height="60" as="geometry" />
        </mxCell>
        <mxCell id="Rtu0G7_exBjI5bwSWY3L-41" value="" style="endArrow=classic;html=1;rounded=0;exitX=0.5;exitY=1;exitDx=0;exitDy=0;entryX=0.5;entryY=0;entryDx=0;entryDy=0;" edge="1" parent="1" source="Rtu0G7_exBjI5bwSWY3L-33" target="Rtu0G7_exBjI5bwSWY3L-40">
          <mxGeometry width="50" height="50" relative="1" as="geometry">
            <mxPoint x="140" y="430" as="sourcePoint" />
            <mxPoint x="190" y="380" as="targetPoint" />
            <Array as="points">
              <mxPoint x="440" y="510" />
              <mxPoint x="680" y="510" />
            </Array>
          </mxGeometry>
        </mxCell>
      </root>
    </mxGraphModel>
  </diagram>
</mxfile>
